<?xml version="1.0" encoding="iso-8859-1"?>
<!-- Generator: Adobe Illustrator 19.0.0, SVG Export Plug-In . SVG Version: 6.00 Build 0)  -->
<svg version="1.1" id="Layer_1" xmlns="http://www.w3.org/2000/svg" xmlns:xlink="http://www.w3.org/1999/xlink" x="0px" y="0px"
	 viewBox="0 0 512 512" style="enable-background:new 0 0 512 512;" xml:space="preserve">
<g>
	<path style="fill:#333E48;" d="M54.429,467.039C24.417,467.039,0,442.622,0,412.61V99.39c0-30.013,24.417-54.429,54.429-54.429
		H457.57c30.013,0,54.43,24.416,54.43,54.429v313.22c0,30.013-24.417,54.429-54.43,54.429L54.429,467.039L54.429,467.039z"/>
</g>
<g>
	<path style="fill:#F9E0A4;" d="M54.429,433.917H256V78.083H54.429c-11.767,0-21.307,9.539-21.307,21.307v313.22
		C33.122,424.377,42.662,433.917,54.429,433.917z"/>
	<path style="fill:#F9E0A4;" d="M256,433.917h201.571c11.768,0,21.307-9.54,21.307-21.307V99.39c0-11.768-9.54-21.307-21.307-21.307
		H256V433.917z"/>
</g>
<g>
	<path style="fill:#5C6670;" d="M164.481,111.92h-39.842c-4.573,0-8.28-3.707-8.28-8.28c0-4.573,3.707-8.28,8.28-8.28h39.842
		c4.573,0,8.28,3.707,8.28,8.28C172.762,108.213,169.055,111.92,164.481,111.92z"/>
	<path style="fill:#5C6670;" d="M387.361,111.92h-39.842c-4.574,0-8.28-3.707-8.28-8.28c0-4.573,3.706-8.28,8.28-8.28h39.842
		c4.574,0,8.28,3.707,8.28,8.28C395.641,108.213,391.934,111.92,387.361,111.92z"/>
</g>
<g>
	<path style="fill:#FF6361;" d="M337.458,316.028c-15.311,0-29.706-5.962-40.533-16.789c-22.349-22.349-22.349-58.716,0-81.065
		c9.892-9.892,23.037-15.81,37.012-16.664c4.57-0.286,8.49,3.196,8.77,7.76c0.278,4.564-3.196,8.49-7.76,8.77
		c-9.936,0.607-19.28,4.814-26.311,11.844c-15.894,15.893-15.894,41.752,0,57.645c7.699,7.699,17.934,11.938,28.821,11.938
		c10.887,0,21.124-4.24,28.821-11.938c7.032-7.032,11.238-16.376,11.844-26.312c0.279-4.564,4.201-8.042,8.77-7.76
		c4.565,0.278,8.039,4.205,7.76,8.77c-0.853,13.975-6.772,27.12-16.665,37.014C367.165,310.066,352.771,316.028,337.458,316.028z"/>
	<path style="fill:#FF6361;" d="M337.458,291.347c-8.718,0-16.915-3.395-23.08-9.56c-12.725-12.726-12.725-33.434,0-46.161
		c6.165-6.165,14.363-9.56,23.08-9.56c8.718,0,16.915,3.395,23.08,9.56l0,0c12.725,12.726,12.725,33.434,0,46.161
		C354.375,287.952,346.177,291.347,337.458,291.347z M337.458,242.635c-4.117,0-8.235,1.567-11.37,4.702
		c-6.27,6.27-6.27,16.47,0,22.74c6.269,6.269,16.47,6.27,22.739,0c6.27-6.27,6.27-16.47,0-22.74
		C345.694,244.201,341.577,242.635,337.458,242.635z"/>
	<path style="fill:#FF6361;" d="M360.41,224.886c-3.657,0-7.002-2.44-7.992-6.14c-1.839-6.865,0.063-13.962,5.087-18.988
		c5.023-5.026,12.119-6.927,18.988-5.088c1.5,0.405,2.518-0.329,2.991-0.802c0.473-0.473,1.205-1.489,0.803-2.992
		c-1.84-6.864,0.062-13.962,5.085-18.986c5.026-5.026,12.125-6.929,18.988-5.089c1.501,0.402,2.521-0.329,2.993-0.802
		c0.473-0.473,1.203-1.488,0.802-2.991c-1.839-6.865,0.063-13.964,5.087-18.989c5.025-5.025,12.124-6.926,18.988-5.087
		c4.417,1.184,7.038,5.725,5.855,10.142c-1.182,4.417-5.723,7.037-10.142,5.855c-1.5-0.405-2.519,0.329-2.991,0.802
		c-0.473,0.473-1.205,1.489-0.803,2.992c1.84,6.864-0.062,13.962-5.086,18.986c-5.025,5.026-12.121,6.927-18.989,5.089
		c-1.5-0.405-2.519,0.329-2.991,0.802c-0.473,0.471-1.203,1.488-0.802,2.991c1.839,6.865-0.063,13.963-5.087,18.989
		c-5.025,5.023-12.12,6.927-18.986,5.087c-1.505-0.405-2.519,0.329-2.992,0.802s-1.205,1.488-0.803,2.991
		c1.184,4.417-1.439,8.958-5.856,10.142C361.839,224.793,361.118,224.886,360.41,224.886z"/>
	<path style="fill:#FF6361;" d="M381.201,245.678c-3.656,0-7.002-2.44-7.992-6.14c-1.839-6.865,0.063-13.962,5.087-18.988
		c5.025-5.023,12.12-6.927,18.986-5.088c1.505,0.403,2.52-0.329,2.992-0.802c0.473-0.473,1.205-1.488,0.803-2.991
		c-1.839-6.865,0.063-13.963,5.087-18.989c5.026-5.025,12.119-6.926,18.988-5.088c1.498,0.405,2.518-0.329,2.991-0.802
		c0.473-0.473,1.205-1.489,0.803-2.991c-1.84-6.864,0.062-13.962,5.086-18.988c5.026-5.026,12.124-6.927,18.988-5.087
		c4.417,1.184,7.038,5.725,5.855,10.142c-1.182,4.417-5.722,7.037-10.141,5.855c-1.501-0.405-2.519,0.329-2.991,0.8
		c-0.473,0.473-1.203,1.488-0.802,2.992c1.839,6.865-0.063,13.963-5.087,18.989c-5.027,5.025-12.126,6.925-18.988,5.087
		c-1.5-0.404-2.519,0.329-2.991,0.8c-0.473,0.473-1.205,1.489-0.803,2.992c1.839,6.865-0.063,13.963-5.087,18.988
		s-12.121,6.926-18.988,5.087c-1.5-0.404-2.519,0.329-2.991,0.802c-0.473,0.473-1.205,1.489-0.803,2.992
		c1.184,4.417-1.439,8.958-5.856,10.142C382.631,245.586,381.91,245.678,381.201,245.678z"/>
	<circle style="fill:#FF6361;" cx="337.455" cy="258.702" r="8.259"/>
</g>
<g>
	<path style="fill:#333E48;" d="M164.753,248.025c-8.303,0-16.574-1.817-24.322-5.43c-13.953-6.506-24.537-18.057-29.802-32.523
		c-10.869-29.864,4.584-63.002,34.448-73.871c29.86-10.868,63.002,4.583,73.871,34.448c10.869,29.864-4.584,63.002-34.448,73.871
		C178.068,246.86,171.4,248.025,164.753,248.025z M164.746,149.283c-4.655,0-9.386,0.797-14.007,2.48
		c-21.282,7.746-32.295,31.362-24.549,52.645c3.752,10.31,11.295,18.542,21.238,23.177c9.944,4.636,21.096,5.124,31.407,1.371
		c21.282-7.746,32.295-31.362,24.549-52.645C197.32,159.652,181.529,149.283,164.746,149.283z"/>
	
		<rect x="163.601" y="164.382" transform="matrix(-0.342 -0.9397 0.9397 -0.342 33.8289 442.6209)" style="fill:#333E48;" width="16.561" height="90.168"/>
	<path style="fill:#333E48;" d="M147.631,218.291l-10.473-28.775c-1.564-4.297,0.651-9.049,4.949-10.613l32.69-11.898
		c2.061-0.751,4.341-0.651,6.331,0.277c1.991,0.929,3.531,2.609,4.283,4.672l10.473,28.775l-15.563,5.664l-7.64-20.994
		l-17.128,6.234l7.641,20.994L147.631,218.291z"/>
	<path style="fill:#333E48;" d="M155.408,280.623c-3.382,0-6.557-2.088-7.781-5.451c-1.563-4.297,0.651-9.049,4.949-10.613
		l69.261-25.209c4.297-1.566,9.048,0.651,10.613,4.949c1.564,4.297-0.651,9.049-4.949,10.613l-69.261,25.209
		C157.305,280.462,156.349,280.623,155.408,280.623z"/>
</g>
<g>
	
		<rect x="83.432" y="314.896" transform="matrix(-0.9397 -0.342 0.342 -0.9397 131.0262 669.4547)" style="fill:#B07C57;" width="82.197" height="16.561"/>
	<path style="fill:#B07C57;" d="M122.909,356.194c-0.941,0-1.897-0.161-2.832-0.501l-13.039-4.746
		c-4.297-1.564-6.513-6.316-4.948-10.613c1.564-4.298,6.313-6.512,10.613-4.948l13.039,4.746c4.297,1.564,6.513,6.316,4.948,10.613
		C129.466,354.106,126.291,356.194,122.909,356.194z"/>
	<path style="fill:#B07C57;" d="M100.399,411.886c-8.21,0-16.085-4.544-19.986-12.308l-13.041-25.954
		c-5.069-10.088-5.761-21.959-1.9-32.569l20.891-57.398c0.752-2.063,2.291-3.745,4.282-4.672c1.988-0.928,4.266-1.028,6.331-0.277
		l77.244,28.115c2.063,0.752,3.745,2.292,4.672,4.282c0.927,1.991,1.028,4.267,0.277,6.331l-20.891,57.399
		c-3.862,10.609-12.023,19.257-22.389,23.727l0,0l-26.674,11.499C106.345,411.297,103.35,411.886,100.399,411.886z M99.091,297.102
		l-18.058,49.616c-2.309,6.343-1.895,13.439,1.135,19.469l13.042,25.954c1.372,2.729,4.641,3.922,7.448,2.71l26.674-11.499
		c6.197-2.672,11.075-7.842,13.383-14.184l18.059-49.617L99.091,297.102z M132.609,390.957h0.011H132.609z"/>
	<path style="fill:#B07C57;" d="M119.72,377.656c-0.941,0-1.897-0.161-2.832-0.501l-21.202-7.716
		c-4.298-1.563-6.513-6.316-4.949-10.613c1.563-4.298,6.316-6.514,10.613-4.949l21.202,7.716c4.298,1.564,6.513,6.316,4.949,10.613
		C126.278,375.567,123.101,377.656,119.72,377.656z"/>
</g>
<path style="opacity:0.1;enable-background:new    ;" d="M54.429,44.961C24.417,44.961,0,69.377,0,99.39v313.22
	c0,30.013,24.417,54.429,54.429,54.429H256V44.961H54.429z"/>
<path style="opacity:0.15;enable-background:new    ;" d="M477.444,448.433H60.856c-22.634,0-40.983-18.348-40.983-40.983V80.784
	c0-10.73,3.117-20.725,8.477-29.156C11.471,60.883,0,78.82,0,99.39v313.22c0,30.013,24.417,54.429,54.429,54.429H457.57
	c19.266,0,36.213-10.07,45.889-25.214C495.731,446.038,486.867,448.433,477.444,448.433z"/>
<g>
</g>
<g>
</g>
<g>
</g>
<g>
</g>
<g>
</g>
<g>
</g>
<g>
</g>
<g>
</g>
<g>
</g>
<g>
</g>
<g>
</g>
<g>
</g>
<g>
</g>
<g>
</g>
<g>
</g>
</svg>
